<svg width="62" height="80" viewBox="0 0 62 80" fill="none" xmlns="http://www.w3.org/2000/svg">
    <path d="M48.6887 41.5653C48.0509 43.7357 47.2976 45.667 46.6128 47.2166C45.9363 48.7487 45.333 49.9033 44.9818 50.5415C44.9519 50.5978 44.9216 50.6502 44.8918 50.6937C44.8234 50.8241 44.7465 50.9497 44.6733 51.0759C44.665 51.0976 44.6603 51.1018 44.6603 51.1018C44.0011 52.2432 43.3205 53.3719 42.76 54.5568C42.0966 55.9415 41.6042 57.4561 41.519 58.9797C42.0883 61.7231 43.1197 67.0573 44.0784 69.6836C40.7442 76.455 25.5579 82.102 14.5275 79.2372L14.5574 79.0028C15.0325 76.4895 15.3661 73.9506 15.5548 71.3938C15.559 71.3895 15.559 71.3896 15.5632 71.3896C15.559 71.3896 15.559 71.3896 15.5548 71.3896C15.7001 69.4408 15.7644 67.4873 15.743 65.5342C14.0524 66.0723 12.3189 66.4762 10.5383 66.6846C9.76358 66.7715 8.96742 66.8277 8.20153 66.6714C7.43518 66.515 6.68653 66.129 6.23278 65.4822C5.40679 64.3059 5.74921 62.7001 5.69796 61.2544C5.62948 59.6137 4.97866 57.9989 3.89179 56.7838C3.58805 56.4451 3.23259 56.1111 3.13429 55.6641C2.99733 55.0434 3.39099 54.4358 3.80188 53.9539C4.09724 53.6152 4.42661 53.268 4.61948 52.873C4.26868 52.6562 3.92627 52.4261 3.59224 52.1743C3.22421 51.8965 2.83474 51.5492 2.7835 51.0806C2.75368 50.7683 2.88179 50.4688 3.00618 50.182C3.34859 49.4049 3.68681 48.6324 4.02503 47.86C2.75787 47.3262 1.60672 46.5013 0.699207 45.4638C0.32232 45.0386 -0.0242856 44.5308 0.00133711 43.962C0.0311526 43.3284 0.510528 42.8248 0.955897 42.3821C3.21163 40.1206 5.33878 37.5208 6.03664 34.3824C6.60174 31.8389 6.16942 29.1696 6.50764 26.5868C6.53326 26.4002 6.72147 25.6537 6.9954 24.6942C8.36086 19.9543 11.2413 15.7572 15.2906 13.0095C16.6561 12.0807 18.1883 11.2908 19.892 10.7178V41.5663H48.6887V41.5653Z" fill="#929DFF"/>
    <path d="M29.2153 58.863C29.2153 58.863 24.5063 69.6402 15.5542 71.3915C15.7009 69.4413 15.7634 67.4868 15.7452 65.5329C20.4761 64.0334 24.9102 61.4463 29.2153 58.863Z" fill="#363449"/>
    <path d="M46.6132 47.2175C46.3561 47.869 46.0738 48.494 45.7691 49.0973C45.5194 49.5849 45.2552 50.0649 44.9836 50.5416C45.3321 49.9047 45.9377 48.7473 46.6132 47.2175Z" fill="#8BADF2"/>
    <path d="M44.8919 50.6941C44.782 50.8949 44.7084 51.0253 44.6753 51.0772C44.7484 50.9506 44.822 50.824 44.8919 50.6941Z" fill="#8BADF2"/>
    <path d="M36.1782 23.936V31.4174C35.9984 31.3319 35.8629 31.2053 35.7781 31.1198C34.912 30.1891 33.6751 29.6533 32.3903 29.6533H32.306C29.8434 29.7091 27.7917 31.7821 27.7293 34.2761C27.6999 35.564 28.1695 36.7809 29.0542 37.7041C29.9426 38.6234 31.1315 39.1294 32.4052 39.1294C33.7227 39.1294 34.9889 38.5601 35.8736 37.5623C35.9542 37.4731 36.0571 37.4022 36.1782 37.3502V40.4395H21.0012V23.936H27.4097V23.2585C27.4097 22.6665 27.1856 22.0821 26.7491 21.6839C26.0223 21.0177 25.5672 20.061 25.5672 18.9929C25.5672 16.9902 27.1637 15.3674 29.1423 15.3674H29.2303C31.1096 15.4156 32.6693 17.0087 32.7099 18.9145C32.7318 19.9718 32.306 20.9355 31.6086 21.613C31.1571 22.0486 30.8706 22.6292 30.8706 23.258V23.9355H36.1782V23.936Z" fill="#B6C1FF"/>
    <path d="M32.6395 20.7735C33.2833 19.6184 33.4282 18.2332 33.0308 16.9694C32.2775 14.594 29.7376 13.1871 27.3631 13.8334L27.2541 13.8665C24.7771 14.6096 23.3664 17.2581 24.0997 19.7624C24.4738 21.0432 25.3738 22.1118 26.5697 22.6906C26.6764 22.743 26.7738 22.8248 26.8586 22.924L21.8519 24.4291L17.5352 9.67741L20.2568 8.85868L20.0662 8.21428C19.9004 7.64263 19.5193 7.14516 18.9887 6.89052C18.1096 6.46533 17.4033 5.67542 17.1033 4.65024C16.5419 2.7331 17.6181 0.713459 19.5198 0.145121L19.5985 0.12103C21.4107 -0.375498 23.3552 0.701169 23.9269 2.51862C24.2427 3.52632 24.1067 4.57276 23.6278 5.42267C23.3208 5.97164 23.2057 6.61226 23.3846 7.21509L23.5709 7.86279L32.0847 5.30078L34.9525 15.1009L35.3085 16.3246L36.4014 20.0525L32.4662 21.2355C32.4988 21.0432 32.5771 20.8769 32.6395 20.7735Z" fill="#363449"/>
    <path d="M61.999 31.7225C61.9515 33.6283 60.3838 35.2138 58.505 35.2511H58.4281C57.4116 35.2511 56.4901 34.8269 55.8444 34.1343C55.4111 33.6765 54.8386 33.386 54.2185 33.386H53.5505V40.4394H37.2801V36.1478H36.612C36.0283 36.1478 35.4483 36.3751 35.0593 36.8139C34.4024 37.5509 33.4553 38.0125 32.4057 38.0125C30.3978 38.0125 28.7831 36.3448 28.8306 34.3015C28.8781 32.392 30.4458 30.8103 32.3246 30.7692H32.3908C33.411 30.7692 34.3362 31.1934 34.9857 31.8893C35.4189 32.3471 35.9915 32.6376 36.6115 32.6376H37.2796V25.0522H42.4805C42.3925 25.2308 42.2751 25.3688 42.187 25.4505C41.2399 26.3699 40.7154 27.6539 40.7447 28.9829C40.7922 31.4769 42.8332 33.5575 45.2958 33.6208C45.3363 33.6208 45.3726 33.6245 45.4094 33.6245C47.9899 33.6245 50.0891 31.4958 50.0891 28.8789C50.0891 27.5429 49.524 26.2588 48.5438 25.3617C48.452 25.28 48.3821 25.1718 48.3309 25.0527H53.55V29.8763H54.218C54.8018 29.8763 55.3813 29.649 55.7708 29.2064C56.4277 28.4694 57.3748 28.0078 58.4244 28.0078C60.4318 28.0078 62.047 29.6755 61.999 31.7225Z" fill="#6D7EE2"/>
    <path d="M53.55 7.43236V23.9359H47.1452V24.6133C47.1452 25.2053 47.3693 25.7897 47.8058 26.188C48.5326 26.8541 48.9877 27.8108 48.9877 28.8789C48.9877 30.8816 47.3912 32.5082 45.4089 32.5082C45.3833 32.5082 45.354 32.5044 45.3246 32.5044C43.4453 32.4562 41.8818 30.8632 41.845 28.9574C41.8231 27.9001 42.2489 26.9363 42.9464 26.2588C43.3978 25.8232 43.6843 25.2426 43.6843 24.6138V23.9364H37.2795V20.0468H37.9439C38.5639 20.0468 39.137 20.3374 39.5697 20.7951C40.2229 21.491 41.1481 21.9153 42.1646 21.9153H42.2308C44.1101 21.8742 45.681 20.2887 45.7285 18.3829C45.7728 16.3396 44.1576 14.6719 42.1534 14.6719C41.1001 14.6719 40.153 15.1335 39.4999 15.8705C39.1071 16.3099 38.5309 16.5366 37.9439 16.5366H37.2795V7.43236H47.3805V8.10984C47.3805 8.73865 47.0944 9.31974 46.6425 9.75863C45.9451 10.4323 45.5193 11.3966 45.5412 12.4572C45.5524 13.1346 45.7616 13.771 46.1063 14.3143C46.1543 14.3923 46.2056 14.4669 46.2605 14.5415C46.323 14.6195 46.3854 14.7017 46.4515 14.7759C46.5177 14.8505 46.5876 14.9247 46.657 14.9918C47.2808 15.5946 48.1142 15.9744 49.0208 16.0004C49.0501 16.0004 49.0795 16.0042 49.1088 16.0042C51.0874 16.0042 52.6839 14.3814 52.6839 12.375C52.6839 11.3106 52.2288 10.3501 51.502 9.68399C51.065 9.28951 50.8414 8.70132 50.8414 8.10936V7.43188H53.55V7.43236Z" fill="#B6C1FF"/>
    <path d="M40.3589 43.3652C40.0799 45.2077 39.4193 47.1282 38.5015 48.7472C37.6867 50.1952 36.4573 51.483 34.8533 51.9852C33.3667 52.4506 31.6048 52.1118 30.5701 50.8835C29.5205 49.6292 29.1497 47.8056 29.0323 46.205C28.9554 45.1553 29.0179 44.0984 29.2084 43.0671C29.2084 43.0671 29.2084 43.0671 29.2084 43.0633C29.3994 41.1651 30.0088 39.2744 31.2931 37.8415C32.4788 36.5164 34.2845 35.7161 36.0571 35.9173C37.58 36.0921 38.85 37.0412 39.6135 38.3702C40.4833 39.8886 40.6193 41.6602 40.3589 43.3652Z" fill="#929DFF"/>
    <path d="M39.0298 36.5248C37.2818 35.0668 34.81 35.0829 32.8603 36.1157C30.8892 37.1597 29.6659 39.1671 29.0649 41.2968H19.8961C19.4238 41.2968 19.4228 42.0414 19.8961 42.0414H28.8809C28.838 42.2417 28.7989 42.442 28.7667 42.6423C28.6913 43.111 29.3984 43.3127 29.4748 42.8403C29.8089 40.7639 30.6717 38.6824 32.3343 37.3449C33.8917 36.092 36.2481 35.6442 38.0175 36.7067C39.9126 37.8447 40.5923 40.2031 40.4721 42.3145C40.3435 44.567 39.5352 46.9944 38.2811 48.861C36.9418 50.8542 34.5491 52.3305 32.1242 51.6185C31.6695 51.4848 31.4753 52.2029 31.929 52.3362C34.2449 53.016 36.6795 51.9332 38.2164 50.1545C39.8614 48.2506 40.8061 45.5941 41.129 43.1114C41.4355 40.7526 40.9259 38.106 39.0298 36.5248Z" fill="#363449"/>
</svg>
