<svg width="62" height="80" viewBox="0 0 62 80" fill="none" xmlns="http://www.w3.org/2000/svg">
    <path d="M53.3044 51.3528C53.3044 51.3949 48.3751 60.9701 49.4535 66.0277C40.2972 83.9844 19.1273 79.5034 19.1273 79.5034C20.8372 77.0678 21.9351 74.2693 22.3366 71.3827C22.517 70.0949 22.5624 68.7842 22.4521 67.4827C22.3419 67.5248 22.2216 67.562 22.106 67.5991C19.2729 68.4868 16.2846 68.8541 13.3059 69.0772C11.195 69.2351 9.00869 69.3144 7.05292 68.5661C6.54644 68.366 6.04523 68.1058 5.74398 67.6828C5.12195 66.823 5.52345 65.6888 5.71865 64.6661C6.08955 62.7929 5.64849 60.7941 4.51998 59.2045C4.224 58.7815 3.86788 58.3677 3.75286 57.8703C3.51703 56.8198 4.41499 55.9135 5.35726 55.2161C5.05653 55.2024 4.76583 55.0674 4.53475 54.8859C4.24405 54.658 4.02827 54.3607 3.81776 54.0677C3.67214 53.8584 3.52178 53.6495 3.48696 53.403C3.41152 52.9149 3.81301 52.4875 4.12903 52.0923C4.48515 51.6462 4.78113 51.1533 4.98636 50.6329C3.36192 49.7824 1.89259 48.6668 0.673867 47.356C0.347818 47.0029 0.0217683 46.6028 0.00171998 46.1382C-0.0536767 45.1111 1.2405 44.5717 2.23289 44.13C4.40391 43.1631 6.11382 41.3506 6.86616 39.2402C7.97409 36.1306 7.03182 32.7603 6.91628 29.4928C6.79071 25.672 7.90392 21.8279 10.0401 18.5647C10.1604 19.1643 10.3361 19.7639 10.5413 20.3406C12.2359 25.026 16.3226 28.7122 20.9759 31.1199C25.6293 33.5277 30.8492 34.8013 36.0391 35.9262C36.726 36.0748 37.4182 36.2284 38.1151 36.3864C38.7266 35.6845 39.5243 35.1172 40.4318 34.7783C42.6329 33.9693 45.3457 34.5504 46.9353 36.1775C48.1841 37.4467 48.6954 39.1849 48.8056 40.9236C51.8203 43.5759 53.4853 47.5037 53.3044 51.3528Z" fill="#FF9F9F"/>
    <path d="M29.5555 63.1304C28.2439 66.5295 25.6551 69.4909 22.335 71.3812C22.517 70.093 22.5602 68.7847 22.4521 67.4847C25.1576 66.5858 27.6989 65.1611 29.5344 63.1226L29.5555 63.1304Z" fill="#363449"/>
    <path d="M53.3043 51.3522C53.4863 47.5036 51.8196 43.5748 48.8066 40.9225C48.6984 39.1848 48.183 37.4471 46.9363 36.1749C45.3477 34.5497 42.6333 33.9677 40.4343 34.7786C39.5253 35.1156 38.7286 35.6815 38.114 36.3838C37.4212 36.2273 36.7285 36.0747 36.0405 35.9265C30.8501 34.7987 25.6291 33.5266 20.9758 31.1188C16.322 28.7111 12.2358 25.0229 10.5428 20.3399C10.3349 19.7618 10.1619 19.1642 10.0405 18.5621C10.0405 18.5582 10.0447 18.5543 10.0447 18.5543C10.0447 18.5543 22.3169 13.0927 37.6571 22.3867C55.9775 33.486 53.3043 51.3522 53.3043 51.3522Z" fill="#F47A7A"/>
    <path d="M47.8676 36.3453C46.5254 34.5601 44.1908 33.5698 41.852 33.8221C39.3222 34.095 37.2019 35.8391 36.4891 38.0879C36.3319 38.5843 37.167 38.7966 37.3237 38.3011C37.8745 36.5629 39.4077 35.1505 41.3186 34.7196C43.3387 34.2643 45.5573 34.9661 46.8741 36.4495C48.3355 38.0962 48.6067 40.3915 48.1862 42.4246C47.7657 44.4587 46.825 46.5706 45.4169 48.1933C43.8922 49.9501 41.4816 51.2027 39.003 50.6241C38.4628 50.4979 38.2322 51.2716 38.773 51.3978C44.1803 52.6606 47.8227 47.3257 48.8953 43.1778C49.4873 40.8918 49.3585 38.3285 47.8676 36.3453Z" fill="#363449"/>
    <path d="M15.4886 26.6506C12.8485 24.4742 11.1186 21.4967 10.5978 18.258C10.5161 17.7488 9.68142 17.965 9.7632 18.4712C10.3034 21.8302 12.1395 24.9618 14.8766 27.218C15.2918 27.5603 15.9064 26.9944 15.4886 26.6506Z" fill="#363449"/>
    <path d="M49.1992 40.7661C48.7883 40.4184 48.1747 40.9842 48.5872 41.3334C51.4114 43.7246 53.0126 47.176 52.9346 50.7219C52.923 51.2383 53.7887 51.2383 53.8003 50.7219C53.8826 46.9779 52.1828 43.2927 49.1992 40.7661Z" fill="#363449"/>
    <path d="M51.1102 21.4594C49.3681 23.047 47.1237 24.1161 44.7311 24.5441C46.268 22.4327 47.5759 20.178 48.611 17.8182C49.5132 15.7611 50.2075 13.6272 50.685 11.4513C50.7773 11.0312 50.0677 10.9299 49.9759 11.3486C48.3156 18.9123 43.9065 25.911 37.6799 31.0288C35.9463 32.4535 34.0749 33.729 32.0923 34.8397C31.6966 35.0613 32.1223 35.5973 32.5154 35.3772C37.0938 32.812 41.0586 29.3483 44.1582 25.3124C46.9929 24.951 49.6282 23.738 51.6668 21.8795C51.9965 21.5792 51.4362 21.162 51.1102 21.4594Z" fill="#FF9F9F"/>
    <path d="M30.3517 19.7105C30.2509 18.3782 29.9966 17.0601 29.6073 15.7748C29.4822 15.3625 28.808 15.5909 28.9325 16.0023C30.6319 21.613 29.4036 27.8694 25.681 32.5655C25.4087 32.9094 25.9522 33.3441 26.2254 32.9989C29.2417 29.1938 30.7073 24.4194 30.3517 19.7105Z" fill="#363449"/>
    <path d="M41.4323 12.5319C40.8419 13.1246 40.0748 13.5418 39.2665 13.8387C37.6637 14.4261 35.9174 14.5581 34.2033 14.7591C32.5176 14.9548 30.7877 15.2458 29.3547 16.0826L29.3516 16.0816C29.3526 16.0787 29.3526 16.0787 29.3537 16.0753C29.7304 13.6572 31.1717 11.4627 33.0056 9.71083C33.3043 9.42618 33.6124 9.14741 33.9432 8.88966C34.6454 8.3233 35.422 7.8352 36.2851 7.50947C37.1657 7.17836 38.1491 7.02821 39.0834 7.13923C39.4855 7.18619 39.8785 7.28205 40.252 7.43219C41.4993 7.93399 42.4605 9.10535 42.4378 10.3638C42.4257 11.1717 42.0221 11.9425 41.4323 12.5319Z" fill="#F47A7A"/>
    <path d="M29.3546 16.0831L29.3514 16.0821C27.7929 15.4561 26.0361 15.4136 24.3383 15.459C22.6115 15.5026 20.8626 15.62 19.1838 15.2654C18.3375 15.0859 17.5082 14.7822 16.8271 14.2784C16.1486 13.7786 15.6236 13.0767 15.4785 12.2785C15.2496 11.0392 16.0082 9.74558 17.1573 9.07505C17.7292 8.74247 18.3771 8.54831 19.0482 8.4725C19.7261 8.39865 20.4268 8.44364 21.0889 8.5889C22.1847 8.83197 23.194 9.32252 24.1246 9.92214C24.3198 10.0434 24.5098 10.1701 24.6939 10.3017C26.7916 11.7738 28.5812 13.7414 29.353 16.0763C29.3525 16.0787 29.3557 16.0802 29.3546 16.0831Z" fill="#F47A7A"/>
    <path d="M33.0056 9.71131C31.1712 11.4632 29.7298 13.6577 29.3536 16.0757C28.5812 13.7409 26.7917 11.7733 24.6945 10.3011C24.5104 10.1691 24.3205 10.0429 24.1252 9.92162C25.1287 8.37954 26.9452 7.29671 28.8888 7.12896C30.7417 6.97294 32.65 7.65472 33.9436 8.89014C33.6123 9.14789 33.3042 9.42618 33.0056 9.71131Z" fill="#FF9F9F"/>
    <path d="M39.0833 7.13965C38.149 7.02863 37.1656 7.17877 36.285 7.50988C35.4214 7.83561 34.6448 8.32372 33.9431 8.89007C32.6494 7.65416 30.7411 6.97238 28.8883 7.12889C26.9446 7.29664 25.1281 8.37898 24.1247 9.92155C23.1945 9.32193 22.1847 8.83187 21.0889 8.58831C20.4268 8.44305 19.7262 8.39806 19.0482 8.47191C18.7285 7.14601 19.1537 5.66164 20.2036 4.70304C21.2646 3.73368 22.898 3.36148 24.3352 3.69651C24.5626 2.40141 25.4442 1.2105 26.6808 0.559529C28.042 -0.155999 29.7983 -0.1873 31.1922 0.477363C32.2099 0.966446 33.0124 1.81452 33.4308 2.80246C34.42 2.14709 35.7596 1.9495 36.9155 2.32267C38.2345 2.74818 39.2443 3.89899 39.4273 5.18381C39.5244 5.84896 39.3925 6.53319 39.0833 7.13965Z" fill="#363449"/>
    <path d="M41.0886 19.6984C40.3352 21.2717 38.3362 22.3066 36.6854 22.9018C34.6362 23.6404 32.404 23.8066 30.2219 23.6805C30.003 23.6673 29.8489 23.1816 29.8774 23.1117C30.6456 21.2355 31.8654 19.5321 33.4771 18.1881C34.8985 17.0006 36.7287 16.0224 38.7129 16.265C39.5381 16.3648 40.3674 16.7042 40.8808 17.3332C41.4442 18.0218 41.4585 18.9266 41.0886 19.6984Z" fill="#363449"/>
    <path d="M18.9906 19.4274C19.6654 21.0316 21.6111 22.1502 23.2308 22.8153C25.2415 23.6404 27.4631 23.9016 29.6489 23.8678C29.8684 23.8639 30.0467 23.3851 30.0214 23.3142C29.3471 21.4072 28.2128 19.6539 26.6696 18.2424C25.309 16.9957 23.5289 15.9408 21.5346 16.0987C20.7053 16.1633 19.8601 16.467 19.3167 17.0735C18.7189 17.7372 18.6598 18.6405 18.9906 19.4274Z" fill="#363449"/>
    <path d="M16.567 26.1352C17.2418 27.7394 19.1876 28.8579 20.8072 29.5231C22.8179 30.3482 25.0395 30.6093 27.2253 30.5756C27.4448 30.5717 27.6231 30.0928 27.5978 30.0219C26.9236 28.115 25.7892 26.3616 24.2461 24.9501C22.8854 23.7035 21.1053 22.6485 19.1111 22.8065C18.2817 22.8711 17.4365 23.1748 16.8931 23.7812C16.2953 24.4449 16.2362 25.3483 16.567 26.1352Z" fill="#363449"/>
    <path d="M38.3094 16.5637C39.8146 22.0375 38.8834 28.0474 35.7812 32.9054L35.6926 32.8927C33.8961 30.3803 33.1454 27.2448 33.6213 24.2633C34.1014 21.2819 35.8034 18.4843 38.3094 16.5637Z" fill="#FF9F9F"/>
    <path d="M58.5765 28.9122C56.0795 31.275 52.6269 32.7559 49.0684 32.9887C45.5056 33.2245 41.8663 32.2101 39.0342 30.1946L39.183 30.2396C41.8156 28.2363 45.2249 27.2073 48.6315 27.0806C52.0339 26.9559 55.4337 27.69 58.5765 28.9122Z" fill="#FF9F9F"/>
    <path d="M37.4636 35.9286C31.0271 34.6492 24.8358 32.4566 19.1226 29.4258C18.6383 29.169 18.2014 29.862 18.6857 30.1188C24.4602 33.1819 30.7284 35.4097 37.2336 36.7028C37.777 36.8104 38.0091 36.0367 37.4636 35.9286Z" fill="#363449"/>
    <path d="M50.1405 12.1234C50.1368 12.1264 50.1368 12.1264 50.1368 12.1264C50.1368 12.1264 50.1368 12.1264 50.1347 12.1225C49.9495 11.9112 42.654 3.542 47.3976 1.28244C48.8104 0.608485 49.6287 1.27266 50.0814 2.53792C50.4212 1.22815 51.0332 0.369812 52.0889 0.522406C53.1419 0.674511 53.4432 1.6649 53.3361 3.00841C54.1828 1.93096 55.1805 1.52943 56.3048 2.5702C60.0818 6.06176 50.3869 11.9743 50.1405 12.1234Z" fill="#F47A7A"/>
    <path d="M56.1497 8.54336C55.7065 10.7814 50.1347 12.1225 50.1347 12.1225C50.1347 12.1225 45.2687 9.2721 45.5816 7.01547C45.8945 4.75884 49.4367 4.90605 50.8659 7.77942C53.1709 5.44551 56.5934 6.30532 56.1497 8.54336Z" fill="#FF9F9F"/>
    <path d="M50.7084 22.3492C50.7036 22.3497 50.7036 22.3497 50.7036 22.3497C50.7036 22.3497 50.7036 22.3497 50.7047 22.3453C50.7036 22.0729 50.7005 11.3131 55.922 12.3176C57.4778 12.616 57.6646 13.6093 57.1592 14.8575C58.3109 14.0363 59.3692 13.7252 60.0868 14.4589C60.8027 15.1905 60.3658 16.1364 59.3724 17.1195C60.7615 16.7747 61.8099 17.0432 61.9792 18.508C62.5506 23.4237 51.0006 22.3771 50.7084 22.3492Z" fill="#F47A7A"/>
    <path d="M57.8098 23.0643C55.9479 24.5472 50.7048 22.3454 50.7048 22.3454C50.7048 22.3454 48.8508 17.2936 50.6235 15.7203C52.3968 14.1469 55.0526 16.3243 54.2164 19.3923C57.5919 18.9193 59.6717 21.5814 57.8098 23.0643Z" fill="#FF9F9F"/>
    <path d="M23.559 53.629C26.367 53.629 28.6433 51.5188 28.6433 48.9157C28.6433 46.3126 26.367 44.2024 23.559 44.2024C20.751 44.2024 18.4746 46.3126 18.4746 48.9157C18.4746 51.5188 20.751 53.629 23.559 53.629Z" fill="#F47A7A"/>
</svg>
